# xmcd
#
# Track frame offsets: 
#        150
#        26350
#        46701
#        67396
#        88719
#        104815
#        123692
#        139496
#        155841
#        183892
#        199282
#        222699
#        241907
#        265454
#        282734
#
# Disc length: 4019 seconds
#
# Revision: 0
# Processed by: cddbd v1.5.1PL2 Copyright (c) Steve Scherf et al.
# Submitted via: ExactAudioCopy v0.95b4
#
DISCID=fc0fb10f
DTITLE=Михаил Шуфутинский - Аудио караоке.. Коллекция русского шансона
DTITLE=, часть 2. Пальма-де-Майорка
DYEAR=1900
DGENRE=Instrumental
TTITLE0=Душа болит
TTITLE1=Зи-Зи
TTITLE2=Серёга-капитан
TTITLE3=А ты себя побереги
TTITLE4=Марина
TTITLE5=Пальма-де-Иайорка
TTITLE6=Поворую-перестану
TTITLE7=Гуляй, душа
TTITLE8=Третье сентября
TTITLE9=Самогончик
TTITLE10=Бутылка вина
TTITLE11=Таганка
TTITLE12=Сингарелла
TTITLE13=Гадалка
TTITLE14=Нарисуй журавлика
EXTD=
EXTT0=
EXTT1=
EXTT2=
EXTT3=
EXTT4=
EXTT5=
EXTT6=
EXTT7=
EXTT8=
EXTT9=
EXTT10=
EXTT11=
EXTT12=
EXTT13=
EXTT14=
PLAYORDER=
